<svg width="967" height="433" viewBox="0 0 967 433" fill="none" xmlns="http://www.w3.org/2000/svg">
<rect x="0.5" y="0.5" width="966" height="432" rx="19.5" fill="#1E3A8A" fill-opacity="0.1"/>
<path d="M367.122 260H365.46L370.267 246.909H371.903L376.71 260H375.048L371.136 248.98H371.034L367.122 260ZM367.736 254.886H374.435V256.293H367.736V254.886ZM383.812 260V246.909H391.661V248.315H385.397V252.739H391.073V254.145H385.397V260H383.812ZM399.744 255.986V250.182H401.252V260H399.744V258.338H399.642C399.412 258.837 399.054 259.261 398.568 259.61C398.082 259.955 397.468 260.128 396.727 260.128C396.113 260.128 395.568 259.994 395.091 259.725C394.613 259.452 394.238 259.043 393.966 258.498C393.693 257.948 393.556 257.256 393.556 256.42V250.182H395.065V256.318C395.065 257.034 395.265 257.605 395.666 258.031C396.071 258.457 396.586 258.67 397.213 258.67C397.588 258.67 397.969 258.575 398.357 258.383C398.749 258.191 399.077 257.897 399.341 257.501C399.61 257.104 399.744 256.599 399.744 255.986ZM405.524 246.909V260H404.015V246.909H405.524ZM409.795 246.909V260H408.287V246.909H409.795ZM418.183 253.685V255.091H412.456V253.685H418.183ZM428.201 250.182C428.125 249.534 427.814 249.031 427.268 248.673C426.723 248.315 426.054 248.136 425.261 248.136C424.681 248.136 424.174 248.23 423.74 248.418C423.309 248.605 422.973 248.863 422.73 249.191C422.491 249.519 422.372 249.892 422.372 250.31C422.372 250.659 422.455 250.96 422.621 251.211C422.792 251.458 423.009 251.665 423.273 251.831C423.537 251.993 423.814 252.127 424.104 252.234C424.394 252.336 424.66 252.419 424.903 252.483L426.233 252.841C426.574 252.93 426.953 253.054 427.37 253.212C427.792 253.369 428.195 253.585 428.578 253.857C428.966 254.126 429.286 254.471 429.537 254.893C429.789 255.315 429.914 255.832 429.914 256.446C429.914 257.153 429.729 257.793 429.358 258.364C428.992 258.935 428.455 259.388 427.748 259.725C427.044 260.062 426.19 260.23 425.184 260.23C424.247 260.23 423.435 260.079 422.749 259.776C422.067 259.474 421.53 259.052 421.138 258.511C420.75 257.969 420.531 257.341 420.48 256.625H422.116C422.159 257.119 422.325 257.528 422.615 257.852C422.909 258.172 423.279 258.411 423.727 258.568C424.179 258.722 424.664 258.798 425.184 258.798C425.789 258.798 426.333 258.7 426.814 258.504C427.296 258.304 427.677 258.027 427.958 257.673C428.24 257.315 428.38 256.898 428.38 256.42C428.38 255.986 428.259 255.632 428.016 255.359C427.773 255.087 427.453 254.865 427.057 254.695C426.661 254.524 426.233 254.375 425.772 254.247L424.162 253.787C423.139 253.493 422.329 253.073 421.733 252.528C421.136 251.982 420.838 251.268 420.838 250.386C420.838 249.653 421.036 249.014 421.432 248.469C421.833 247.919 422.37 247.493 423.043 247.19C423.721 246.884 424.477 246.73 425.312 246.73C426.156 246.73 426.906 246.881 427.562 247.184C428.218 247.482 428.738 247.891 429.122 248.411C429.51 248.931 429.714 249.521 429.735 250.182H428.201ZM436.586 250.182V251.46H431.498V250.182H436.586ZM432.981 247.83H434.49V257.188C434.49 257.614 434.551 257.933 434.675 258.146C434.803 258.355 434.965 258.496 435.161 258.568C435.361 258.636 435.572 258.67 435.794 258.67C435.96 258.67 436.096 258.662 436.203 258.645C436.309 258.624 436.394 258.607 436.458 258.594L436.765 259.949C436.663 259.987 436.52 260.026 436.337 260.064C436.154 260.107 435.921 260.128 435.64 260.128C435.214 260.128 434.796 260.036 434.387 259.853C433.982 259.67 433.646 259.391 433.377 259.016C433.113 258.641 432.981 258.168 432.981 257.597V247.83ZM441.744 260.23C441.122 260.23 440.558 260.113 440.051 259.879C439.544 259.64 439.141 259.297 438.843 258.849C438.544 258.398 438.395 257.852 438.395 257.213C438.395 256.651 438.506 256.195 438.727 255.845C438.949 255.491 439.245 255.214 439.616 255.014C439.987 254.814 440.396 254.665 440.843 254.567C441.295 254.464 441.749 254.384 442.205 254.324C442.801 254.247 443.285 254.19 443.656 254.151C444.031 254.109 444.303 254.038 444.474 253.94C444.649 253.842 444.736 253.672 444.736 253.429V253.378C444.736 252.747 444.563 252.257 444.218 251.908C443.877 251.558 443.36 251.384 442.665 251.384C441.945 251.384 441.38 251.541 440.971 251.857C440.562 252.172 440.274 252.509 440.108 252.866L438.676 252.355C438.932 251.759 439.273 251.294 439.699 250.962C440.129 250.625 440.598 250.391 441.105 250.259C441.617 250.122 442.119 250.054 442.614 250.054C442.929 250.054 443.291 250.092 443.7 250.169C444.114 250.241 444.512 250.393 444.896 250.623C445.284 250.853 445.605 251.2 445.861 251.665C446.117 252.129 446.244 252.751 446.244 253.531V260H444.736V258.67H444.659C444.557 258.884 444.387 259.112 444.148 259.354C443.909 259.597 443.592 259.804 443.195 259.974C442.799 260.145 442.316 260.23 441.744 260.23ZM441.975 258.875C442.571 258.875 443.074 258.758 443.483 258.523C443.896 258.289 444.208 257.987 444.416 257.616C444.629 257.245 444.736 256.855 444.736 256.446V255.065C444.672 255.142 444.531 255.212 444.314 255.276C444.101 255.336 443.854 255.389 443.573 255.436C443.296 255.479 443.025 255.517 442.761 255.551C442.501 255.581 442.29 255.607 442.128 255.628C441.736 255.679 441.369 255.762 441.029 255.877C440.692 255.988 440.419 256.156 440.21 256.382C440.006 256.604 439.904 256.906 439.904 257.29C439.904 257.814 440.097 258.21 440.485 258.479C440.877 258.743 441.374 258.875 441.975 258.875ZM452.987 260.205C452.066 260.205 451.273 259.987 450.609 259.553C449.944 259.118 449.433 258.519 449.075 257.756C448.717 256.994 448.538 256.122 448.538 255.142C448.538 254.145 448.721 253.265 449.087 252.502C449.458 251.735 449.974 251.136 450.634 250.706C451.299 250.271 452.075 250.054 452.961 250.054C453.651 250.054 454.273 250.182 454.827 250.438C455.381 250.693 455.835 251.051 456.189 251.511C456.543 251.972 456.762 252.509 456.847 253.122H455.339C455.224 252.675 454.968 252.278 454.572 251.933C454.18 251.584 453.651 251.409 452.987 251.409C452.398 251.409 451.883 251.562 451.44 251.869C451.001 252.172 450.658 252.6 450.411 253.154C450.168 253.704 450.046 254.349 450.046 255.091C450.046 255.849 450.165 256.51 450.404 257.072C450.647 257.635 450.988 258.072 451.427 258.383C451.87 258.694 452.39 258.849 452.987 258.849C453.379 258.849 453.734 258.781 454.054 258.645C454.374 258.509 454.644 258.312 454.866 258.057C455.087 257.801 455.245 257.494 455.339 257.136H456.847C456.762 257.716 456.551 258.238 456.214 258.702C455.882 259.163 455.441 259.529 454.891 259.802C454.346 260.07 453.711 260.205 452.987 260.205ZM460.459 256.42L460.433 254.554H460.74L465.036 250.182H466.902L462.325 254.81H462.197L460.459 256.42ZM459.053 260V246.909H460.561V260H459.053ZM465.291 260L461.456 255.142L462.53 254.094L467.209 260H465.291ZM476.488 260L472.909 246.909H474.52L477.256 257.571H477.383L480.17 246.909H481.96L484.747 257.571H484.875L487.611 246.909H489.221L485.642 260H484.006L481.116 249.568H481.014L478.125 260H476.488ZM494.194 260.205C493.248 260.205 492.432 259.996 491.746 259.578C491.064 259.156 490.538 258.568 490.167 257.814C489.801 257.055 489.618 256.173 489.618 255.168C489.618 254.162 489.801 253.276 490.167 252.509C490.538 251.737 491.054 251.136 491.714 250.706C492.379 250.271 493.155 250.054 494.041 250.054C494.552 250.054 495.057 250.139 495.556 250.31C496.055 250.48 496.508 250.757 496.917 251.141C497.327 251.52 497.653 252.023 497.895 252.649C498.138 253.276 498.26 254.047 498.26 254.963V255.602H490.692V254.298H496.726C496.726 253.744 496.615 253.25 496.393 252.815C496.176 252.381 495.865 252.038 495.46 251.786C495.059 251.535 494.586 251.409 494.041 251.409C493.44 251.409 492.92 251.558 492.481 251.857C492.047 252.151 491.712 252.534 491.478 253.007C491.243 253.48 491.126 253.987 491.126 254.528V255.398C491.126 256.139 491.254 256.768 491.51 257.283C491.77 257.795 492.13 258.185 492.59 258.453C493.05 258.717 493.585 258.849 494.194 258.849C494.591 258.849 494.949 258.794 495.268 258.683C495.592 258.568 495.871 258.398 496.106 258.172C496.34 257.942 496.521 257.656 496.649 257.315L498.106 257.724C497.953 258.219 497.695 258.653 497.333 259.028C496.971 259.399 496.523 259.689 495.991 259.898C495.458 260.102 494.859 260.205 494.194 260.205ZM500.759 260V246.909H502.268V251.741H502.395C502.506 251.571 502.66 251.354 502.856 251.089C503.056 250.821 503.341 250.582 503.712 250.374C504.087 250.161 504.594 250.054 505.233 250.054C506.06 250.054 506.789 250.261 507.42 250.674C508.05 251.087 508.542 251.673 508.896 252.432C509.25 253.19 509.427 254.085 509.427 255.116C509.427 256.156 509.25 257.058 508.896 257.82C508.542 258.579 508.052 259.167 507.426 259.585C506.8 259.998 506.077 260.205 505.259 260.205C504.628 260.205 504.123 260.1 503.744 259.891C503.365 259.678 503.073 259.437 502.868 259.169C502.664 258.896 502.506 258.67 502.395 258.491H502.216V260H500.759ZM502.242 255.091C502.242 255.832 502.351 256.487 502.568 257.053C502.785 257.616 503.103 258.057 503.52 258.376C503.938 258.692 504.449 258.849 505.055 258.849C505.685 258.849 506.211 258.683 506.633 258.351C507.059 258.014 507.379 257.562 507.592 256.996C507.809 256.425 507.918 255.79 507.918 255.091C507.918 254.401 507.812 253.778 507.599 253.224C507.39 252.666 507.072 252.225 506.646 251.901C506.224 251.573 505.694 251.409 505.055 251.409C504.441 251.409 503.925 251.565 503.508 251.876C503.09 252.183 502.775 252.613 502.562 253.167C502.349 253.717 502.242 254.358 502.242 255.091ZM521.041 260H517.001V246.909H521.22C522.49 246.909 523.577 247.171 524.48 247.695C525.383 248.215 526.076 248.963 526.557 249.939C527.039 250.911 527.28 252.074 527.28 253.429C527.28 254.793 527.037 255.967 526.551 256.951C526.065 257.931 525.358 258.685 524.429 259.214C523.5 259.738 522.371 260 521.041 260ZM518.586 258.594H520.939C522.021 258.594 522.918 258.385 523.63 257.967C524.341 257.55 524.872 256.955 525.221 256.184C525.571 255.413 525.746 254.494 525.746 253.429C525.746 252.372 525.573 251.462 525.228 250.7C524.883 249.933 524.367 249.344 523.681 248.935C522.995 248.522 522.14 248.315 521.118 248.315H518.586V258.594ZM533.851 260.205C532.905 260.205 532.089 259.996 531.403 259.578C530.721 259.156 530.194 258.568 529.824 257.814C529.457 257.055 529.274 256.173 529.274 255.168C529.274 254.162 529.457 253.276 529.824 252.509C530.194 251.737 530.71 251.136 531.371 250.706C532.035 250.271 532.811 250.054 533.697 250.054C534.209 250.054 534.714 250.139 535.212 250.31C535.711 250.48 536.165 250.757 536.574 251.141C536.983 251.52 537.309 252.023 537.552 252.649C537.795 253.276 537.916 254.047 537.916 254.963V255.602H530.348V254.298H536.382C536.382 253.744 536.271 253.25 536.05 252.815C535.832 252.381 535.521 252.038 535.116 251.786C534.716 251.535 534.243 251.409 533.697 251.409C533.096 251.409 532.577 251.558 532.138 251.857C531.703 252.151 531.368 252.534 531.134 253.007C530.9 253.48 530.782 253.987 530.782 254.528V255.398C530.782 256.139 530.91 256.768 531.166 257.283C531.426 257.795 531.786 258.185 532.246 258.453C532.706 258.717 533.241 258.849 533.851 258.849C534.247 258.849 534.605 258.794 534.925 258.683C535.248 258.568 535.528 258.398 535.762 258.172C535.996 257.942 536.177 257.656 536.305 257.315L537.763 257.724C537.609 258.219 537.351 258.653 536.989 259.028C536.627 259.399 536.18 259.689 535.647 259.898C535.114 260.102 534.515 260.205 533.851 260.205ZM547.94 250.182L544.31 260H542.776L539.145 250.182H540.781L543.491 258.006H543.594L546.304 250.182H547.94ZM553.696 260.205C552.75 260.205 551.934 259.996 551.248 259.578C550.566 259.156 550.04 258.568 549.669 257.814C549.303 257.055 549.12 256.173 549.12 255.168C549.12 254.162 549.303 253.276 549.669 252.509C550.04 251.737 550.556 251.136 551.216 250.706C551.881 250.271 552.657 250.054 553.543 250.054C554.054 250.054 554.559 250.139 555.058 250.31C555.556 250.48 556.01 250.757 556.419 251.141C556.828 251.52 557.154 252.023 557.397 252.649C557.64 253.276 557.762 254.047 557.762 254.963V255.602H550.194V254.298H556.228C556.228 253.744 556.117 253.25 555.895 252.815C555.678 252.381 555.367 252.038 554.962 251.786C554.561 251.535 554.088 251.409 553.543 251.409C552.942 251.409 552.422 251.558 551.983 251.857C551.549 252.151 551.214 252.534 550.98 253.007C550.745 253.48 550.628 253.987 550.628 254.528V255.398C550.628 256.139 550.756 256.768 551.012 257.283C551.272 257.795 551.632 258.185 552.092 258.453C552.552 258.717 553.087 258.849 553.696 258.849C554.093 258.849 554.451 258.794 554.77 258.683C555.094 258.568 555.373 258.398 555.608 258.172C555.842 257.942 556.023 257.656 556.151 257.315L557.608 257.724C557.455 258.219 557.197 258.653 556.835 259.028C556.473 259.399 556.025 259.689 555.493 259.898C554.96 260.102 554.361 260.205 553.696 260.205ZM561.565 246.909V260H560.056V246.909H561.565ZM568.317 260.205C567.43 260.205 566.653 259.994 565.983 259.572C565.319 259.15 564.799 258.56 564.424 257.801C564.053 257.043 563.868 256.156 563.868 255.142C563.868 254.119 564.053 253.227 564.424 252.464C564.799 251.701 565.319 251.109 565.983 250.687C566.653 250.265 567.43 250.054 568.317 250.054C569.203 250.054 569.979 250.265 570.643 250.687C571.312 251.109 571.832 251.701 572.203 252.464C572.578 253.227 572.765 254.119 572.765 255.142C572.765 256.156 572.578 257.043 572.203 257.801C571.832 258.56 571.312 259.15 570.643 259.572C569.979 259.994 569.203 260.205 568.317 260.205ZM568.317 258.849C568.99 258.849 569.544 258.677 569.979 258.332C570.413 257.987 570.735 257.533 570.944 256.97C571.153 256.408 571.257 255.798 571.257 255.142C571.257 254.486 571.153 253.874 570.944 253.308C570.735 252.741 570.413 252.283 569.979 251.933C569.544 251.584 568.99 251.409 568.317 251.409C567.643 251.409 567.089 251.584 566.655 251.933C566.22 252.283 565.898 252.741 565.689 253.308C565.481 253.874 565.376 254.486 565.376 255.142C565.376 255.798 565.481 256.408 565.689 256.97C565.898 257.533 566.22 257.987 566.655 258.332C567.089 258.677 567.643 258.849 568.317 258.849ZM575.068 263.682V250.182H576.526V251.741H576.705C576.815 251.571 576.969 251.354 577.165 251.089C577.365 250.821 577.651 250.582 578.021 250.374C578.396 250.161 578.903 250.054 579.543 250.054C580.369 250.054 581.098 250.261 581.729 250.674C582.359 251.087 582.852 251.673 583.205 252.432C583.559 253.19 583.736 254.085 583.736 255.116C583.736 256.156 583.559 257.058 583.205 257.82C582.852 258.579 582.362 259.167 581.735 259.585C581.109 259.998 580.386 260.205 579.568 260.205C578.938 260.205 578.433 260.1 578.053 259.891C577.674 259.678 577.382 259.437 577.178 259.169C576.973 258.896 576.815 258.67 576.705 258.491H576.577V263.682H575.068ZM576.551 255.091C576.551 255.832 576.66 256.487 576.877 257.053C577.094 257.616 577.412 258.057 577.83 258.376C578.247 258.692 578.759 258.849 579.364 258.849C579.994 258.849 580.521 258.683 580.942 258.351C581.369 258.014 581.688 257.562 581.901 256.996C582.119 256.425 582.227 255.79 582.227 255.091C582.227 254.401 582.121 253.778 581.908 253.224C581.699 252.666 581.381 252.225 580.955 251.901C580.533 251.573 580.003 251.409 579.364 251.409C578.75 251.409 578.234 251.565 577.817 251.876C577.399 252.183 577.084 252.613 576.871 253.167C576.658 253.717 576.551 254.358 576.551 255.091ZM590.153 260.205C589.207 260.205 588.391 259.996 587.705 259.578C587.023 259.156 586.497 258.568 586.126 257.814C585.76 257.055 585.577 256.173 585.577 255.168C585.577 254.162 585.76 253.276 586.126 252.509C586.497 251.737 587.013 251.136 587.673 250.706C588.338 250.271 589.114 250.054 590 250.054C590.511 250.054 591.016 250.139 591.515 250.31C592.013 250.48 592.467 250.757 592.876 251.141C593.286 251.52 593.612 252.023 593.854 252.649C594.097 253.276 594.219 254.047 594.219 254.963V255.602H586.651V254.298H592.685C592.685 253.744 592.574 253.25 592.352 252.815C592.135 252.381 591.824 252.038 591.419 251.786C591.018 251.535 590.545 251.409 590 251.409C589.399 251.409 588.879 251.558 588.44 251.857C588.006 252.151 587.671 252.534 587.437 253.007C587.202 253.48 587.085 253.987 587.085 254.528V255.398C587.085 256.139 587.213 256.768 587.469 257.283C587.729 257.795 588.089 258.185 588.549 258.453C589.009 258.717 589.544 258.849 590.153 258.849C590.55 258.849 590.908 258.794 591.227 258.683C591.551 258.568 591.83 258.398 592.065 258.172C592.299 257.942 592.48 257.656 592.608 257.315L594.065 257.724C593.912 258.219 593.654 258.653 593.292 259.028C592.93 259.399 592.482 259.689 591.95 259.898C591.417 260.102 590.818 260.205 590.153 260.205ZM596.513 260V250.182H597.971V251.665H598.073C598.252 251.179 598.576 250.785 599.045 250.482C599.513 250.18 600.042 250.028 600.63 250.028C600.741 250.028 600.879 250.031 601.045 250.035C601.212 250.039 601.337 250.045 601.423 250.054V251.588C601.371 251.575 601.254 251.556 601.071 251.531C600.892 251.501 600.702 251.486 600.502 251.486C600.025 251.486 599.599 251.586 599.224 251.786C598.853 251.982 598.559 252.255 598.342 252.604C598.129 252.95 598.022 253.344 598.022 253.787V260H596.513Z" fill="#CBD5E1"/>
<path d="M168.287 219V181.182H176.283V196.786H192.514V181.182H200.491V219H192.514V203.378H176.283V219H168.287ZM217.151 219.554C214.283 219.554 211.802 218.945 209.71 217.726C207.629 216.495 206.023 214.784 204.89 212.592C203.757 210.389 203.191 207.834 203.191 204.929C203.191 201.999 203.757 199.438 204.89 197.247C206.023 195.044 207.629 193.332 209.71 192.114C211.802 190.883 214.283 190.267 217.151 190.267C220.02 190.267 222.494 190.883 224.575 192.114C226.668 193.332 228.28 195.044 229.413 197.247C230.545 199.438 231.112 201.999 231.112 204.929C231.112 207.834 230.545 210.389 229.413 212.592C228.28 214.784 226.668 216.495 224.575 217.726C222.494 218.945 220.02 219.554 217.151 219.554ZM217.188 213.46C218.493 213.46 219.583 213.091 220.457 212.352C221.331 211.601 221.989 210.58 222.433 209.287C222.888 207.994 223.116 206.523 223.116 204.874C223.116 203.224 222.888 201.753 222.433 200.46C221.989 199.168 221.331 198.146 220.457 197.395C219.583 196.644 218.493 196.268 217.188 196.268C215.871 196.268 214.763 196.644 213.864 197.395C212.978 198.146 212.307 199.168 211.852 200.46C211.409 201.753 211.187 203.224 211.187 204.874C211.187 206.523 211.409 207.994 211.852 209.287C212.307 210.58 212.978 211.601 213.864 212.352C214.763 213.091 215.871 213.46 217.188 213.46ZM238.511 219L230.792 190.636H238.751L243.146 209.693H243.404L247.984 190.636H255.795L260.448 209.582H260.688L265.01 190.636H272.95L265.25 219H256.921L252.046 201.162H251.696L246.821 219H238.511ZM284.287 219.462C282.133 219.462 280.181 218.908 278.433 217.8C276.698 216.679 275.319 215.036 274.297 212.869C273.287 210.69 272.783 208.019 272.783 204.855C272.783 201.605 273.306 198.903 274.352 196.749C275.399 194.582 276.79 192.963 278.526 191.892C280.274 190.809 282.188 190.267 284.269 190.267C285.857 190.267 287.18 190.538 288.239 191.08C289.31 191.609 290.171 192.274 290.824 193.074C291.489 193.862 291.993 194.637 292.338 195.401H292.578V181.182H300.426V219H292.671V214.457H292.338C291.969 215.245 291.446 216.027 290.769 216.803C290.104 217.566 289.236 218.2 288.165 218.705C287.106 219.209 285.814 219.462 284.287 219.462ZM286.78 213.202C288.048 213.202 289.119 212.857 289.993 212.168C290.879 211.466 291.556 210.487 292.024 209.232C292.504 207.976 292.744 206.505 292.744 204.818C292.744 203.132 292.51 201.667 292.043 200.423C291.575 199.18 290.898 198.22 290.011 197.543C289.125 196.866 288.048 196.527 286.78 196.527C285.487 196.527 284.398 196.878 283.511 197.58C282.625 198.281 281.954 199.254 281.499 200.497C281.043 201.741 280.815 203.181 280.815 204.818C280.815 206.468 281.043 207.927 281.499 209.195C281.966 210.45 282.637 211.435 283.511 212.149C284.398 212.851 285.487 213.202 286.78 213.202ZM309.15 229.636C308.153 229.636 307.218 229.556 306.344 229.396C305.482 229.249 304.768 229.058 304.202 228.824L305.974 222.952C306.898 223.235 307.729 223.389 308.467 223.413C309.218 223.438 309.864 223.266 310.406 222.896C310.96 222.527 311.409 221.899 311.754 221.013L312.216 219.812L302.041 190.636H310.314L316.186 211.466H316.481L322.409 190.636H330.737L319.713 222.065C319.184 223.592 318.463 224.921 317.552 226.054C316.654 227.199 315.515 228.079 314.136 228.695C312.757 229.322 311.096 229.636 309.15 229.636ZM341.562 181.182L340.842 207.662H334.083L333.344 181.182H341.562ZM337.462 219.48C336.244 219.48 335.197 219.049 334.323 218.188C333.449 217.313 333.018 216.267 333.031 215.048C333.018 213.842 333.449 212.808 334.323 211.946C335.197 211.084 336.244 210.653 337.462 210.653C338.632 210.653 339.66 211.084 340.546 211.946C341.433 212.808 341.882 213.842 341.894 215.048C341.882 215.861 341.666 216.606 341.248 217.283C340.842 217.947 340.306 218.483 339.641 218.889C338.977 219.283 338.25 219.48 337.462 219.48ZM364.001 181.182V219H356.005V181.182H364.001ZM374.424 181.182V185.17C374.424 186.303 374.202 187.46 373.759 188.642C373.328 189.812 372.749 190.92 372.023 191.966C371.297 193 370.503 193.88 369.641 194.607L366.169 192.557C366.785 191.584 367.327 190.507 367.794 189.325C368.275 188.143 368.515 186.771 368.515 185.207V181.182H374.424ZM375.946 219V190.636H383.443V195.641H383.776C384.367 193.979 385.352 192.668 386.73 191.707C388.109 190.747 389.759 190.267 391.679 190.267C393.624 190.267 395.28 190.753 396.647 191.726C398.013 192.686 398.924 193.991 399.379 195.641H399.675C400.254 194.016 401.3 192.717 402.814 191.744C404.341 190.759 406.144 190.267 408.225 190.267C410.871 190.267 413.02 191.11 414.669 192.797C416.331 194.471 417.162 196.847 417.162 199.925V219H409.314V201.476C409.314 199.9 408.896 198.718 408.058 197.93C407.221 197.143 406.175 196.749 404.919 196.749C403.491 196.749 402.377 197.204 401.577 198.115C400.777 199.014 400.377 200.202 400.377 201.679V219H392.75V201.31C392.75 199.919 392.35 198.811 391.55 197.986C390.762 197.161 389.722 196.749 388.429 196.749C387.555 196.749 386.767 196.97 386.066 197.413C385.376 197.844 384.828 198.454 384.422 199.241C384.016 200.017 383.813 200.928 383.813 201.974V219H375.946ZM430.359 219V181.182H445.279C448.135 181.182 450.573 181.693 452.592 182.714C454.623 183.724 456.168 185.158 457.227 187.017C458.298 188.864 458.833 191.036 458.833 193.536C458.833 196.047 458.292 198.207 457.208 200.017C456.125 201.814 454.555 203.193 452.499 204.153C450.456 205.114 447.981 205.594 445.076 205.594H435.086V199.168H443.784C445.31 199.168 446.578 198.958 447.587 198.54C448.597 198.121 449.348 197.493 449.84 196.656C450.345 195.819 450.597 194.779 450.597 193.536C450.597 192.28 450.345 191.221 449.84 190.359C449.348 189.498 448.591 188.845 447.569 188.402C446.56 187.946 445.285 187.719 443.747 187.719H438.355V219H430.359ZM450.782 201.79L460.181 219H451.355L442.159 201.79H450.782ZM469.824 219.536C468.014 219.536 466.402 219.222 464.986 218.594C463.57 217.954 462.45 217.012 461.625 215.768C460.813 214.513 460.407 212.949 460.407 211.078C460.407 209.502 460.696 208.179 461.274 207.108C461.853 206.037 462.641 205.175 463.638 204.523C464.635 203.87 465.768 203.378 467.036 203.045C468.316 202.713 469.658 202.479 471.061 202.344C472.711 202.171 474.041 202.011 475.05 201.864C476.059 201.704 476.792 201.47 477.247 201.162C477.703 200.854 477.931 200.399 477.931 199.795V199.685C477.931 198.515 477.561 197.61 476.823 196.97C476.096 196.33 475.062 196.01 473.72 196.01C472.305 196.01 471.178 196.324 470.341 196.952C469.504 197.567 468.95 198.343 468.679 199.278L461.404 198.688C461.773 196.964 462.499 195.474 463.583 194.219C464.666 192.951 466.063 191.978 467.774 191.301C469.498 190.612 471.492 190.267 473.757 190.267C475.333 190.267 476.841 190.452 478.282 190.821C479.734 191.19 481.021 191.763 482.141 192.538C483.273 193.314 484.166 194.311 484.818 195.53C485.471 196.736 485.797 198.183 485.797 199.869V219H478.337V215.067H478.115C477.66 215.953 477.05 216.735 476.287 217.412C475.524 218.077 474.607 218.6 473.536 218.982C472.465 219.351 471.228 219.536 469.824 219.536ZM472.077 214.107C473.234 214.107 474.256 213.879 475.142 213.423C476.029 212.955 476.724 212.328 477.229 211.54C477.734 210.752 477.986 209.859 477.986 208.862V205.852C477.74 206.012 477.401 206.16 476.97 206.295C476.552 206.419 476.078 206.536 475.549 206.646C475.019 206.745 474.49 206.837 473.961 206.923C473.431 206.997 472.951 207.065 472.52 207.126C471.597 207.262 470.791 207.477 470.101 207.773C469.412 208.068 468.876 208.468 468.495 208.973C468.113 209.465 467.922 210.081 467.922 210.82C467.922 211.891 468.31 212.709 469.085 213.276C469.873 213.83 470.871 214.107 472.077 214.107ZM514.728 190.636L504.812 219H495.948L486.032 190.636H494.341L500.232 210.93H500.527L506.4 190.636H514.728ZM528.165 219.554C525.248 219.554 522.736 218.963 520.631 217.781C518.538 216.587 516.926 214.901 515.793 212.722C514.661 210.53 514.094 207.939 514.094 204.947C514.094 202.03 514.661 199.469 515.793 197.266C516.926 195.062 518.52 193.345 520.576 192.114C522.644 190.883 525.069 190.267 527.851 190.267C529.723 190.267 531.465 190.569 533.077 191.172C534.702 191.763 536.118 192.655 537.324 193.849C538.543 195.044 539.491 196.545 540.168 198.355C540.845 200.152 541.184 202.258 541.184 204.67V206.831H517.234V201.956H533.779C533.779 200.823 533.533 199.82 533.04 198.946C532.548 198.072 531.865 197.389 530.991 196.896C530.129 196.392 529.126 196.139 527.981 196.139C526.787 196.139 525.728 196.416 524.805 196.97C523.894 197.512 523.18 198.244 522.663 199.168C522.145 200.079 521.881 201.094 521.868 202.214V206.849C521.868 208.253 522.127 209.465 522.644 210.487C523.173 211.509 523.918 212.297 524.878 212.851C525.839 213.405 526.977 213.682 528.295 213.682C529.169 213.682 529.969 213.559 530.695 213.312C531.422 213.066 532.043 212.697 532.56 212.205C533.077 211.712 533.471 211.109 533.742 210.395L541.018 210.875C540.648 212.623 539.891 214.15 538.746 215.455C537.614 216.747 536.149 217.757 534.351 218.483C532.566 219.197 530.504 219.554 528.165 219.554ZM556.643 219.554C553.726 219.554 551.214 218.963 549.109 217.781C547.017 216.587 545.404 214.901 544.271 212.722C543.139 210.53 542.572 207.939 542.572 204.947C542.572 202.03 543.139 199.469 544.271 197.266C545.404 195.062 546.998 193.345 549.054 192.114C551.122 190.883 553.547 190.267 556.33 190.267C558.201 190.267 559.943 190.569 561.555 191.172C563.18 191.763 564.596 192.655 565.803 193.849C567.021 195.044 567.969 196.545 568.646 198.355C569.323 200.152 569.662 202.258 569.662 204.67V206.831H545.712V201.956H562.257C562.257 200.823 562.011 199.82 561.518 198.946C561.026 198.072 560.343 197.389 559.469 196.896C558.607 196.392 557.604 196.139 556.459 196.139C555.265 196.139 554.206 196.416 553.283 196.97C552.372 197.512 551.658 198.244 551.141 199.168C550.624 200.079 550.359 201.094 550.347 202.214V206.849C550.347 208.253 550.605 209.465 551.122 210.487C551.652 211.509 552.396 212.297 553.357 212.851C554.317 213.405 555.455 213.682 556.773 213.682C557.647 213.682 558.447 213.559 559.173 213.312C559.9 213.066 560.521 212.697 561.038 212.205C561.555 211.712 561.949 211.109 562.22 210.395L569.496 210.875C569.126 212.623 568.369 214.15 567.224 215.455C566.092 216.747 564.627 217.757 562.83 218.483C561.045 219.197 558.982 219.554 556.643 219.554ZM580.062 202.602V219H572.195V190.636H579.693V195.641H580.025C580.653 193.991 581.705 192.686 583.183 191.726C584.66 190.753 586.451 190.267 588.556 190.267C590.526 190.267 592.243 190.698 593.708 191.56C595.173 192.421 596.312 193.652 597.124 195.253C597.937 196.841 598.343 198.737 598.343 200.94V219H590.477V202.344C590.489 200.608 590.046 199.254 589.147 198.281C588.248 197.296 587.011 196.804 585.436 196.804C584.377 196.804 583.441 197.032 582.629 197.487C581.828 197.943 581.201 198.607 580.745 199.482C580.302 200.343 580.074 201.384 580.062 202.602Z" fill="white"/>
<path d="M609.846 204.006V200.294C611.975 200.294 613.453 199.869 614.277 199.02C615.102 198.17 615.515 196.798 615.515 194.902V190.821C615.515 188.544 615.829 186.722 616.456 185.355C617.097 183.976 617.983 182.936 619.115 182.234C620.26 181.533 621.615 181.065 623.178 180.831C624.741 180.597 626.453 180.48 628.312 180.48V186.352C626.859 186.352 625.751 186.543 624.988 186.925C624.237 187.294 623.726 187.873 623.455 188.661C623.184 189.436 623.049 190.421 623.049 191.615V197.007C623.049 197.943 622.876 198.835 622.532 199.685C622.187 200.522 621.547 201.267 620.611 201.919C619.676 202.559 618.34 203.07 616.604 203.452C614.868 203.821 612.615 204.006 609.846 204.006ZM628.312 227.217C626.453 227.217 624.741 227.1 623.178 226.866C621.615 226.633 620.26 226.165 619.115 225.463C617.983 224.761 617.097 223.721 616.456 222.342C615.829 220.976 615.515 219.154 615.515 216.876V212.777C615.515 210.881 615.102 209.509 614.277 208.659C613.453 207.81 611.975 207.385 609.846 207.385V203.673C612.615 203.673 614.868 203.864 616.604 204.246C618.34 204.615 619.676 205.126 620.611 205.778C621.547 206.419 622.187 207.163 622.532 208.013C622.876 208.85 623.049 209.742 623.049 210.69V216.082C623.049 217.264 623.184 218.243 623.455 219.018C623.726 219.806 624.237 220.385 624.988 220.754C625.751 221.136 626.859 221.327 628.312 221.327V227.217ZM609.846 207.385V200.294H616.475V207.385H609.846ZM637.922 202.602V219H630.056V181.182H637.701V195.641H638.033C638.673 193.966 639.707 192.655 641.135 191.707C642.563 190.747 644.354 190.267 646.509 190.267C648.478 190.267 650.196 190.698 651.661 191.56C653.138 192.409 654.283 193.634 655.095 195.234C655.92 196.822 656.326 198.724 656.314 200.94V219H648.448V202.344C648.46 200.596 648.017 199.235 647.118 198.263C646.232 197.29 644.988 196.804 643.388 196.804C642.317 196.804 641.369 197.032 640.544 197.487C639.732 197.943 639.092 198.607 638.624 199.482C638.168 200.343 637.934 201.384 637.922 202.602ZM672.831 219.554C669.913 219.554 667.402 218.963 665.297 217.781C663.204 216.587 661.591 214.901 660.459 212.722C659.326 210.53 658.76 207.939 658.76 204.947C658.76 202.03 659.326 199.469 660.459 197.266C661.591 195.062 663.186 193.345 665.241 192.114C667.31 190.883 669.735 190.267 672.517 190.267C674.388 190.267 676.13 190.569 677.743 191.172C679.368 191.763 680.784 192.655 681.99 193.849C683.209 195.044 684.157 196.545 684.834 198.355C685.511 200.152 685.849 202.258 685.849 204.67V206.831H661.899V201.956H678.445C678.445 200.823 678.198 199.82 677.706 198.946C677.214 198.072 676.53 197.389 675.656 196.896C674.795 196.392 673.791 196.139 672.646 196.139C671.452 196.139 670.393 196.416 669.47 196.97C668.559 197.512 667.845 198.244 667.328 199.168C666.811 200.079 666.546 201.094 666.534 202.214V206.849C666.534 208.253 666.793 209.465 667.31 210.487C667.839 211.509 668.584 212.297 669.544 212.851C670.504 213.405 671.643 213.682 672.96 213.682C673.834 213.682 674.634 213.559 675.361 213.312C676.087 213.066 676.709 212.697 677.226 212.205C677.743 211.712 678.137 211.109 678.408 210.395L685.683 210.875C685.314 212.623 684.557 214.15 683.412 215.455C682.279 216.747 680.814 217.757 679.017 218.483C677.232 219.197 675.17 219.554 672.831 219.554ZM692.478 229.636C691.481 229.636 690.545 229.556 689.671 229.396C688.809 229.249 688.095 229.058 687.529 228.824L689.302 222.952C690.225 223.235 691.056 223.389 691.795 223.413C692.546 223.438 693.192 223.266 693.733 222.896C694.287 222.527 694.737 221.899 695.081 221.013L695.543 219.812L685.368 190.636H693.641L699.513 211.466H699.809L705.736 190.636H714.064L703.04 222.065C702.511 223.592 701.791 224.921 700.88 226.054C699.981 227.199 698.842 228.079 697.464 228.695C696.085 229.322 694.423 229.636 692.478 229.636ZM723.356 181.182V219H715.49V181.182H723.356ZM739.984 219.554C737.066 219.554 734.555 218.963 732.45 217.781C730.357 216.587 728.745 214.901 727.612 212.722C726.479 210.53 725.913 207.939 725.913 204.947C725.913 202.03 726.479 199.469 727.612 197.266C728.745 195.062 730.339 193.345 732.395 192.114C734.463 190.883 736.888 190.267 739.67 190.267C741.541 190.267 743.283 190.569 744.896 191.172C746.521 191.763 747.937 192.655 749.143 193.849C750.362 195.044 751.31 196.545 751.987 198.355C752.664 200.152 753.003 202.258 753.003 204.67V206.831H729.052V201.956H745.598C745.598 200.823 745.352 199.82 744.859 198.946C744.367 198.072 743.683 197.389 742.809 196.896C741.948 196.392 740.944 196.139 739.799 196.139C738.605 196.139 737.547 196.416 736.623 196.97C735.712 197.512 734.998 198.244 734.481 199.168C733.964 200.079 733.7 201.094 733.687 202.214V206.849C733.687 208.253 733.946 209.465 734.463 210.487C734.992 211.509 735.737 212.297 736.697 212.851C737.657 213.405 738.796 213.682 740.113 213.682C740.987 213.682 741.788 213.559 742.514 213.312C743.24 213.066 743.862 212.697 744.379 212.205C744.896 211.712 745.29 211.109 745.561 210.395L752.836 210.875C752.467 212.623 751.71 214.15 750.565 215.455C749.432 216.747 747.968 217.757 746.17 218.483C744.385 219.197 742.323 219.554 739.984 219.554ZM759.631 229.636C758.634 229.636 757.698 229.556 756.824 229.396C755.962 229.249 755.248 229.058 754.682 228.824L756.455 222.952C757.378 223.235 758.209 223.389 758.948 223.413C759.699 223.438 760.345 223.266 760.887 222.896C761.441 222.527 761.89 221.899 762.235 221.013L762.696 219.812L752.521 190.636H760.794L766.666 211.466H766.962L772.889 190.636H781.218L770.193 222.065C769.664 223.592 768.944 224.921 768.033 226.054C767.134 227.199 765.995 228.079 764.617 228.695C763.238 229.322 761.576 229.636 759.631 229.636ZM799.17 203.673V207.385C797.053 207.385 795.575 207.81 794.738 208.659C793.913 209.509 793.501 210.881 793.501 212.777V216.876C793.501 219.154 793.181 220.976 792.541 222.342C791.913 223.721 791.027 224.761 789.882 225.463C788.749 226.165 787.401 226.633 785.838 226.866C784.287 227.1 782.575 227.217 780.704 227.217V221.327C782.157 221.327 783.259 221.136 784.01 220.754C784.773 220.385 785.29 219.806 785.561 219.018C785.832 218.243 785.967 217.264 785.967 216.082V210.69C785.967 209.742 786.139 208.85 786.484 208.013C786.829 207.163 787.469 206.419 788.404 205.778C789.34 205.126 790.676 204.615 792.412 204.246C794.147 203.864 796.4 203.673 799.17 203.673ZM780.704 180.48C782.575 180.48 784.287 180.597 785.838 180.831C787.401 181.065 788.749 181.533 789.882 182.234C791.027 182.936 791.913 183.976 792.541 185.355C793.181 186.722 793.501 188.544 793.501 190.821V194.902C793.501 196.798 793.913 198.17 794.738 199.02C795.575 199.869 797.053 200.294 799.17 200.294V204.006C796.4 204.006 794.147 203.821 792.412 203.452C790.676 203.07 789.34 202.559 788.404 201.919C787.469 201.267 786.829 200.522 786.484 199.685C786.139 198.835 785.967 197.943 785.967 197.007V191.615C785.967 190.421 785.832 189.436 785.561 188.661C785.29 187.873 784.773 187.294 784.01 186.925C783.259 186.543 782.157 186.352 780.704 186.352V180.48ZM799.17 200.294V207.385H792.541V200.294H799.17Z" fill="#3B82F6"/>
<rect x="0.5" y="0.5" width="966" height="432" rx="19.5" stroke="#1E3A8A"/>
</svg>
