<svg width="967" height="433" viewBox="0 0 967 433" fill="none" xmlns="http://www.w3.org/2000/svg">
<rect x="0.5" y="0.5" width="966" height="432" rx="19.5" fill="#1E3A8A" fill-opacity="0.1"/>
<path d="M368.122 260H366.46L371.267 246.909H372.903L377.71 260H376.048L372.136 248.98H372.034L368.122 260ZM368.736 254.886H375.435V256.293H368.736V254.886ZM384.812 260V246.909H392.661V248.315H386.397V252.739H392.073V254.145H386.397V260H384.812ZM400.744 255.986V250.182H402.252V260H400.744V258.338H400.642C400.412 258.837 400.054 259.261 399.568 259.61C399.082 259.955 398.468 260.128 397.727 260.128C397.113 260.128 396.568 259.994 396.091 259.725C395.613 259.452 395.238 259.043 394.966 258.498C394.693 257.948 394.556 257.256 394.556 256.42V250.182H396.065V256.318C396.065 257.034 396.265 257.605 396.666 258.031C397.071 258.457 397.586 258.67 398.213 258.67C398.588 258.67 398.969 258.575 399.357 258.383C399.749 258.191 400.077 257.897 400.341 257.501C400.61 257.104 400.744 256.599 400.744 255.986ZM406.524 246.909V260H405.015V246.909H406.524ZM410.795 246.909V260H409.287V246.909H410.795ZM419.183 253.685V255.091H413.456V253.685H419.183ZM429.201 250.182C429.125 249.534 428.814 249.031 428.268 248.673C427.723 248.315 427.054 248.136 426.261 248.136C425.681 248.136 425.174 248.23 424.74 248.418C424.309 248.605 423.973 248.863 423.73 249.191C423.491 249.519 423.372 249.892 423.372 250.31C423.372 250.659 423.455 250.96 423.621 251.211C423.792 251.458 424.009 251.665 424.273 251.831C424.537 251.993 424.814 252.127 425.104 252.234C425.394 252.336 425.66 252.419 425.903 252.483L427.233 252.841C427.574 252.93 427.953 253.054 428.37 253.212C428.792 253.369 429.195 253.585 429.578 253.857C429.966 254.126 430.286 254.471 430.537 254.893C430.789 255.315 430.914 255.832 430.914 256.446C430.914 257.153 430.729 257.793 430.358 258.364C429.992 258.935 429.455 259.388 428.748 259.725C428.044 260.062 427.19 260.23 426.184 260.23C425.247 260.23 424.435 260.079 423.749 259.776C423.067 259.474 422.53 259.052 422.138 258.511C421.75 257.969 421.531 257.341 421.48 256.625H423.116C423.159 257.119 423.325 257.528 423.615 257.852C423.909 258.172 424.279 258.411 424.727 258.568C425.179 258.722 425.664 258.798 426.184 258.798C426.789 258.798 427.333 258.7 427.814 258.504C428.296 258.304 428.677 258.027 428.958 257.673C429.24 257.315 429.38 256.898 429.38 256.42C429.38 255.986 429.259 255.632 429.016 255.359C428.773 255.087 428.453 254.865 428.057 254.695C427.661 254.524 427.233 254.375 426.772 254.247L425.162 253.787C424.139 253.493 423.329 253.073 422.733 252.528C422.136 251.982 421.838 251.268 421.838 250.386C421.838 249.653 422.036 249.014 422.432 248.469C422.833 247.919 423.37 247.493 424.043 247.19C424.721 246.884 425.477 246.73 426.312 246.73C427.156 246.73 427.906 246.881 428.562 247.184C429.218 247.482 429.738 247.891 430.122 248.411C430.51 248.931 430.714 249.521 430.735 250.182H429.201ZM437.586 250.182V251.46H432.498V250.182H437.586ZM433.981 247.83H435.49V257.188C435.49 257.614 435.551 257.933 435.675 258.146C435.803 258.355 435.965 258.496 436.161 258.568C436.361 258.636 436.572 258.67 436.794 258.67C436.96 258.67 437.096 258.662 437.203 258.645C437.309 258.624 437.394 258.607 437.458 258.594L437.765 259.949C437.663 259.987 437.52 260.026 437.337 260.064C437.154 260.107 436.921 260.128 436.64 260.128C436.214 260.128 435.796 260.036 435.387 259.853C434.982 259.67 434.646 259.391 434.377 259.016C434.113 258.641 433.981 258.168 433.981 257.597V247.83ZM442.744 260.23C442.122 260.23 441.558 260.113 441.051 259.879C440.544 259.64 440.141 259.297 439.843 258.849C439.544 258.398 439.395 257.852 439.395 257.213C439.395 256.651 439.506 256.195 439.727 255.845C439.949 255.491 440.245 255.214 440.616 255.014C440.987 254.814 441.396 254.665 441.843 254.567C442.295 254.464 442.749 254.384 443.205 254.324C443.801 254.247 444.285 254.19 444.656 254.151C445.031 254.109 445.303 254.038 445.474 253.94C445.649 253.842 445.736 253.672 445.736 253.429V253.378C445.736 252.747 445.563 252.257 445.218 251.908C444.877 251.558 444.36 251.384 443.665 251.384C442.945 251.384 442.38 251.541 441.971 251.857C441.562 252.172 441.274 252.509 441.108 252.866L439.676 252.355C439.932 251.759 440.273 251.294 440.699 250.962C441.129 250.625 441.598 250.391 442.105 250.259C442.617 250.122 443.119 250.054 443.614 250.054C443.929 250.054 444.291 250.092 444.7 250.169C445.114 250.241 445.512 250.393 445.896 250.623C446.284 250.853 446.605 251.2 446.861 251.665C447.117 252.129 447.244 252.751 447.244 253.531V260H445.736V258.67H445.659C445.557 258.884 445.387 259.112 445.148 259.354C444.909 259.597 444.592 259.804 444.195 259.974C443.799 260.145 443.316 260.23 442.744 260.23ZM442.975 258.875C443.571 258.875 444.074 258.758 444.483 258.523C444.896 258.289 445.208 257.987 445.416 257.616C445.629 257.245 445.736 256.855 445.736 256.446V255.065C445.672 255.142 445.531 255.212 445.314 255.276C445.101 255.336 444.854 255.389 444.573 255.436C444.296 255.479 444.025 255.517 443.761 255.551C443.501 255.581 443.29 255.607 443.128 255.628C442.736 255.679 442.369 255.762 442.029 255.877C441.692 255.988 441.419 256.156 441.21 256.382C441.006 256.604 440.904 256.906 440.904 257.29C440.904 257.814 441.097 258.21 441.485 258.479C441.877 258.743 442.374 258.875 442.975 258.875ZM453.987 260.205C453.066 260.205 452.273 259.987 451.609 259.553C450.944 259.118 450.433 258.519 450.075 257.756C449.717 256.994 449.538 256.122 449.538 255.142C449.538 254.145 449.721 253.265 450.087 252.502C450.458 251.735 450.974 251.136 451.634 250.706C452.299 250.271 453.075 250.054 453.961 250.054C454.651 250.054 455.273 250.182 455.827 250.438C456.381 250.693 456.835 251.051 457.189 251.511C457.543 251.972 457.762 252.509 457.847 253.122H456.339C456.224 252.675 455.968 252.278 455.572 251.933C455.18 251.584 454.651 251.409 453.987 251.409C453.398 251.409 452.883 251.562 452.44 251.869C452.001 252.172 451.658 252.6 451.411 253.154C451.168 253.704 451.046 254.349 451.046 255.091C451.046 255.849 451.165 256.51 451.404 257.072C451.647 257.635 451.988 258.072 452.427 258.383C452.87 258.694 453.39 258.849 453.987 258.849C454.379 258.849 454.734 258.781 455.054 258.645C455.374 258.509 455.644 258.312 455.866 258.057C456.087 257.801 456.245 257.494 456.339 257.136H457.847C457.762 257.716 457.551 258.238 457.214 258.702C456.882 259.163 456.441 259.529 455.891 259.802C455.346 260.07 454.711 260.205 453.987 260.205ZM461.459 256.42L461.433 254.554H461.74L466.036 250.182H467.902L463.325 254.81H463.197L461.459 256.42ZM460.053 260V246.909H461.561V260H460.053ZM466.291 260L462.456 255.142L463.53 254.094L468.209 260H466.291ZM477.488 260L473.909 246.909H475.52L478.256 257.571H478.383L481.17 246.909H482.96L485.747 257.571H485.875L488.611 246.909H490.221L486.642 260H485.006L482.116 249.568H482.014L479.125 260H477.488ZM495.194 260.205C494.248 260.205 493.432 259.996 492.746 259.578C492.064 259.156 491.538 258.568 491.167 257.814C490.801 257.055 490.618 256.173 490.618 255.168C490.618 254.162 490.801 253.276 491.167 252.509C491.538 251.737 492.054 251.136 492.714 250.706C493.379 250.271 494.155 250.054 495.041 250.054C495.552 250.054 496.057 250.139 496.556 250.31C497.055 250.48 497.508 250.757 497.917 251.141C498.327 251.52 498.653 252.023 498.895 252.649C499.138 253.276 499.26 254.047 499.26 254.963V255.602H491.692V254.298H497.726C497.726 253.744 497.615 253.25 497.393 252.815C497.176 252.381 496.865 252.038 496.46 251.786C496.059 251.535 495.586 251.409 495.041 251.409C494.44 251.409 493.92 251.558 493.481 251.857C493.047 252.151 492.712 252.534 492.478 253.007C492.243 253.48 492.126 253.987 492.126 254.528V255.398C492.126 256.139 492.254 256.768 492.51 257.283C492.77 257.795 493.13 258.185 493.59 258.453C494.05 258.717 494.585 258.849 495.194 258.849C495.591 258.849 495.949 258.794 496.268 258.683C496.592 258.568 496.871 258.398 497.106 258.172C497.34 257.942 497.521 257.656 497.649 257.315L499.106 257.724C498.953 258.219 498.695 258.653 498.333 259.028C497.971 259.399 497.523 259.689 496.991 259.898C496.458 260.102 495.859 260.205 495.194 260.205ZM501.759 260V246.909H503.268V251.741H503.395C503.506 251.571 503.66 251.354 503.856 251.089C504.056 250.821 504.341 250.582 504.712 250.374C505.087 250.161 505.594 250.054 506.233 250.054C507.06 250.054 507.789 250.261 508.42 250.674C509.05 251.087 509.542 251.673 509.896 252.432C510.25 253.19 510.427 254.085 510.427 255.116C510.427 256.156 510.25 257.058 509.896 257.82C509.542 258.579 509.052 259.167 508.426 259.585C507.8 259.998 507.077 260.205 506.259 260.205C505.628 260.205 505.123 260.1 504.744 259.891C504.365 259.678 504.073 259.437 503.868 259.169C503.664 258.896 503.506 258.67 503.395 258.491H503.216V260H501.759ZM503.242 255.091C503.242 255.832 503.351 256.487 503.568 257.053C503.785 257.616 504.103 258.057 504.52 258.376C504.938 258.692 505.449 258.849 506.055 258.849C506.685 258.849 507.211 258.683 507.633 258.351C508.059 258.014 508.379 257.562 508.592 256.996C508.809 256.425 508.918 255.79 508.918 255.091C508.918 254.401 508.812 253.778 508.599 253.224C508.39 252.666 508.072 252.225 507.646 251.901C507.224 251.573 506.694 251.409 506.055 251.409C505.441 251.409 504.925 251.565 504.508 251.876C504.09 252.183 503.775 252.613 503.562 253.167C503.349 253.717 503.242 254.358 503.242 255.091ZM522.041 260H518.001V246.909H522.22C523.49 246.909 524.577 247.171 525.48 247.695C526.383 248.215 527.076 248.963 527.557 249.939C528.039 250.911 528.28 252.074 528.28 253.429C528.28 254.793 528.037 255.967 527.551 256.951C527.065 257.931 526.358 258.685 525.429 259.214C524.5 259.738 523.371 260 522.041 260ZM519.586 258.594H521.939C523.021 258.594 523.918 258.385 524.63 257.967C525.341 257.55 525.872 256.955 526.221 256.184C526.571 255.413 526.746 254.494 526.746 253.429C526.746 252.372 526.573 251.462 526.228 250.7C525.883 249.933 525.367 249.344 524.681 248.935C523.995 248.522 523.14 248.315 522.118 248.315H519.586V258.594ZM534.851 260.205C533.905 260.205 533.089 259.996 532.403 259.578C531.721 259.156 531.194 258.568 530.824 257.814C530.457 257.055 530.274 256.173 530.274 255.168C530.274 254.162 530.457 253.276 530.824 252.509C531.194 251.737 531.71 251.136 532.371 250.706C533.035 250.271 533.811 250.054 534.697 250.054C535.209 250.054 535.714 250.139 536.212 250.31C536.711 250.48 537.165 250.757 537.574 251.141C537.983 251.52 538.309 252.023 538.552 252.649C538.795 253.276 538.916 254.047 538.916 254.963V255.602H531.348V254.298H537.382C537.382 253.744 537.271 253.25 537.05 252.815C536.832 252.381 536.521 252.038 536.116 251.786C535.716 251.535 535.243 251.409 534.697 251.409C534.096 251.409 533.577 251.558 533.138 251.857C532.703 252.151 532.368 252.534 532.134 253.007C531.9 253.48 531.782 253.987 531.782 254.528V255.398C531.782 256.139 531.91 256.768 532.166 257.283C532.426 257.795 532.786 258.185 533.246 258.453C533.706 258.717 534.241 258.849 534.851 258.849C535.247 258.849 535.605 258.794 535.925 258.683C536.248 258.568 536.528 258.398 536.762 258.172C536.996 257.942 537.177 257.656 537.305 257.315L538.763 257.724C538.609 258.219 538.351 258.653 537.989 259.028C537.627 259.399 537.18 259.689 536.647 259.898C536.114 260.102 535.515 260.205 534.851 260.205ZM548.94 250.182L545.31 260H543.776L540.145 250.182H541.781L544.491 258.006H544.594L547.304 250.182H548.94ZM554.696 260.205C553.75 260.205 552.934 259.996 552.248 259.578C551.566 259.156 551.04 258.568 550.669 257.814C550.303 257.055 550.12 256.173 550.12 255.168C550.12 254.162 550.303 253.276 550.669 252.509C551.04 251.737 551.556 251.136 552.216 250.706C552.881 250.271 553.657 250.054 554.543 250.054C555.054 250.054 555.559 250.139 556.058 250.31C556.556 250.48 557.01 250.757 557.419 251.141C557.828 251.52 558.154 252.023 558.397 252.649C558.64 253.276 558.762 254.047 558.762 254.963V255.602H551.194V254.298H557.228C557.228 253.744 557.117 253.25 556.895 252.815C556.678 252.381 556.367 252.038 555.962 251.786C555.561 251.535 555.088 251.409 554.543 251.409C553.942 251.409 553.422 251.558 552.983 251.857C552.549 252.151 552.214 252.534 551.98 253.007C551.745 253.48 551.628 253.987 551.628 254.528V255.398C551.628 256.139 551.756 256.768 552.012 257.283C552.272 257.795 552.632 258.185 553.092 258.453C553.552 258.717 554.087 258.849 554.696 258.849C555.093 258.849 555.451 258.794 555.77 258.683C556.094 258.568 556.373 258.398 556.608 258.172C556.842 257.942 557.023 257.656 557.151 257.315L558.608 257.724C558.455 258.219 558.197 258.653 557.835 259.028C557.473 259.399 557.025 259.689 556.493 259.898C555.96 260.102 555.361 260.205 554.696 260.205ZM562.565 246.909V260H561.056V246.909H562.565ZM569.317 260.205C568.43 260.205 567.653 259.994 566.983 259.572C566.319 259.15 565.799 258.56 565.424 257.801C565.053 257.043 564.868 256.156 564.868 255.142C564.868 254.119 565.053 253.227 565.424 252.464C565.799 251.701 566.319 251.109 566.983 250.687C567.653 250.265 568.43 250.054 569.317 250.054C570.203 250.054 570.979 250.265 571.643 250.687C572.312 251.109 572.832 251.701 573.203 252.464C573.578 253.227 573.765 254.119 573.765 255.142C573.765 256.156 573.578 257.043 573.203 257.801C572.832 258.56 572.312 259.15 571.643 259.572C570.979 259.994 570.203 260.205 569.317 260.205ZM569.317 258.849C569.99 258.849 570.544 258.677 570.979 258.332C571.413 257.987 571.735 257.533 571.944 256.97C572.153 256.408 572.257 255.798 572.257 255.142C572.257 254.486 572.153 253.874 571.944 253.308C571.735 252.741 571.413 252.283 570.979 251.933C570.544 251.584 569.99 251.409 569.317 251.409C568.643 251.409 568.089 251.584 567.655 251.933C567.22 252.283 566.898 252.741 566.689 253.308C566.481 253.874 566.376 254.486 566.376 255.142C566.376 255.798 566.481 256.408 566.689 256.97C566.898 257.533 567.22 257.987 567.655 258.332C568.089 258.677 568.643 258.849 569.317 258.849ZM576.068 263.682V250.182H577.526V251.741H577.705C577.815 251.571 577.969 251.354 578.165 251.089C578.365 250.821 578.651 250.582 579.021 250.374C579.396 250.161 579.903 250.054 580.543 250.054C581.369 250.054 582.098 250.261 582.729 250.674C583.359 251.087 583.852 251.673 584.205 252.432C584.559 253.19 584.736 254.085 584.736 255.116C584.736 256.156 584.559 257.058 584.205 257.82C583.852 258.579 583.362 259.167 582.735 259.585C582.109 259.998 581.386 260.205 580.568 260.205C579.938 260.205 579.433 260.1 579.053 259.891C578.674 259.678 578.382 259.437 578.178 259.169C577.973 258.896 577.815 258.67 577.705 258.491H577.577V263.682H576.068ZM577.551 255.091C577.551 255.832 577.66 256.487 577.877 257.053C578.094 257.616 578.412 258.057 578.83 258.376C579.247 258.692 579.759 258.849 580.364 258.849C580.994 258.849 581.521 258.683 581.942 258.351C582.369 258.014 582.688 257.562 582.901 256.996C583.119 256.425 583.227 255.79 583.227 255.091C583.227 254.401 583.121 253.778 582.908 253.224C582.699 252.666 582.381 252.225 581.955 251.901C581.533 251.573 581.003 251.409 580.364 251.409C579.75 251.409 579.234 251.565 578.817 251.876C578.399 252.183 578.084 252.613 577.871 253.167C577.658 253.717 577.551 254.358 577.551 255.091ZM591.153 260.205C590.207 260.205 589.391 259.996 588.705 259.578C588.023 259.156 587.497 258.568 587.126 257.814C586.76 257.055 586.577 256.173 586.577 255.168C586.577 254.162 586.76 253.276 587.126 252.509C587.497 251.737 588.013 251.136 588.673 250.706C589.338 250.271 590.114 250.054 591 250.054C591.511 250.054 592.016 250.139 592.515 250.31C593.013 250.48 593.467 250.757 593.876 251.141C594.286 251.52 594.612 252.023 594.854 252.649C595.097 253.276 595.219 254.047 595.219 254.963V255.602H587.651V254.298H593.685C593.685 253.744 593.574 253.25 593.352 252.815C593.135 252.381 592.824 252.038 592.419 251.786C592.018 251.535 591.545 251.409 591 251.409C590.399 251.409 589.879 251.558 589.44 251.857C589.006 252.151 588.671 252.534 588.437 253.007C588.202 253.48 588.085 253.987 588.085 254.528V255.398C588.085 256.139 588.213 256.768 588.469 257.283C588.729 257.795 589.089 258.185 589.549 258.453C590.009 258.717 590.544 258.849 591.153 258.849C591.55 258.849 591.908 258.794 592.227 258.683C592.551 258.568 592.83 258.398 593.065 258.172C593.299 257.942 593.48 257.656 593.608 257.315L595.065 257.724C594.912 258.219 594.654 258.653 594.292 259.028C593.93 259.399 593.482 259.689 592.95 259.898C592.417 260.102 591.818 260.205 591.153 260.205ZM597.513 260V250.182H598.971V251.665H599.073C599.252 251.179 599.576 250.785 600.045 250.482C600.513 250.18 601.042 250.028 601.63 250.028C601.741 250.028 601.879 250.031 602.045 250.035C602.212 250.039 602.337 250.045 602.423 250.054V251.588C602.371 251.575 602.254 251.556 602.071 251.531C601.892 251.501 601.702 251.486 601.502 251.486C601.025 251.486 600.599 251.586 600.224 251.786C599.853 251.982 599.559 252.255 599.342 252.604C599.129 252.95 599.022 253.344 599.022 253.787V260H597.513Z" fill="#334155"/>
<path d="M169.287 219V181.182H177.283V196.786H193.514V181.182H201.491V219H193.514V203.378H177.283V219H169.287ZM218.151 219.554C215.283 219.554 212.802 218.945 210.71 217.726C208.629 216.495 207.023 214.784 205.89 212.592C204.757 210.389 204.191 207.834 204.191 204.929C204.191 201.999 204.757 199.438 205.89 197.247C207.023 195.044 208.629 193.332 210.71 192.114C212.802 190.883 215.283 190.267 218.151 190.267C221.02 190.267 223.494 190.883 225.575 192.114C227.668 193.332 229.28 195.044 230.413 197.247C231.545 199.438 232.112 201.999 232.112 204.929C232.112 207.834 231.545 210.389 230.413 212.592C229.28 214.784 227.668 216.495 225.575 217.726C223.494 218.945 221.02 219.554 218.151 219.554ZM218.188 213.46C219.493 213.46 220.583 213.091 221.457 212.352C222.331 211.601 222.989 210.58 223.433 209.287C223.888 207.994 224.116 206.523 224.116 204.874C224.116 203.224 223.888 201.753 223.433 200.46C222.989 199.168 222.331 198.146 221.457 197.395C220.583 196.644 219.493 196.268 218.188 196.268C216.871 196.268 215.763 196.644 214.864 197.395C213.978 198.146 213.307 199.168 212.852 200.46C212.409 201.753 212.187 203.224 212.187 204.874C212.187 206.523 212.409 207.994 212.852 209.287C213.307 210.58 213.978 211.601 214.864 212.352C215.763 213.091 216.871 213.46 218.188 213.46ZM239.511 219L231.792 190.636H239.751L244.146 209.693H244.404L248.984 190.636H256.795L261.448 209.582H261.688L266.01 190.636H273.95L266.25 219H257.921L253.046 201.162H252.696L247.821 219H239.511ZM285.287 219.462C283.133 219.462 281.181 218.908 279.433 217.8C277.698 216.679 276.319 215.036 275.297 212.869C274.287 210.69 273.783 208.019 273.783 204.855C273.783 201.605 274.306 198.903 275.352 196.749C276.399 194.582 277.79 192.963 279.526 191.892C281.274 190.809 283.188 190.267 285.269 190.267C286.857 190.267 288.18 190.538 289.239 191.08C290.31 191.609 291.171 192.274 291.824 193.074C292.489 193.862 292.993 194.637 293.338 195.401H293.578V181.182H301.426V219H293.671V214.457H293.338C292.969 215.245 292.446 216.027 291.769 216.803C291.104 217.566 290.236 218.2 289.165 218.705C288.106 219.209 286.814 219.462 285.287 219.462ZM287.78 213.202C289.048 213.202 290.119 212.857 290.993 212.168C291.879 211.466 292.556 210.487 293.024 209.232C293.504 207.976 293.744 206.505 293.744 204.818C293.744 203.132 293.51 201.667 293.043 200.423C292.575 199.18 291.898 198.22 291.011 197.543C290.125 196.866 289.048 196.527 287.78 196.527C286.487 196.527 285.398 196.878 284.511 197.58C283.625 198.281 282.954 199.254 282.499 200.497C282.043 201.741 281.815 203.181 281.815 204.818C281.815 206.468 282.043 207.927 282.499 209.195C282.966 210.45 283.637 211.435 284.511 212.149C285.398 212.851 286.487 213.202 287.78 213.202ZM310.15 229.636C309.153 229.636 308.218 229.556 307.344 229.396C306.482 229.249 305.768 229.058 305.202 228.824L306.974 222.952C307.898 223.235 308.729 223.389 309.467 223.413C310.218 223.438 310.864 223.266 311.406 222.896C311.96 222.527 312.409 221.899 312.754 221.013L313.216 219.812L303.041 190.636H311.314L317.186 211.466H317.481L323.409 190.636H331.737L320.713 222.065C320.184 223.592 319.463 224.921 318.552 226.054C317.654 227.199 316.515 228.079 315.136 228.695C313.757 229.322 312.096 229.636 310.15 229.636ZM342.562 181.182L341.842 207.662H335.083L334.344 181.182H342.562ZM338.462 219.48C337.244 219.48 336.197 219.049 335.323 218.188C334.449 217.313 334.018 216.267 334.031 215.048C334.018 213.842 334.449 212.808 335.323 211.946C336.197 211.084 337.244 210.653 338.462 210.653C339.632 210.653 340.66 211.084 341.546 211.946C342.433 212.808 342.882 213.842 342.894 215.048C342.882 215.861 342.666 216.606 342.248 217.283C341.842 217.947 341.306 218.483 340.641 218.889C339.977 219.283 339.25 219.48 338.462 219.48ZM365.001 181.182V219H357.005V181.182H365.001ZM375.424 181.182V185.17C375.424 186.303 375.202 187.46 374.759 188.642C374.328 189.812 373.749 190.92 373.023 191.966C372.297 193 371.503 193.88 370.641 194.607L367.169 192.557C367.785 191.584 368.327 190.507 368.794 189.325C369.275 188.143 369.515 186.771 369.515 185.207V181.182H375.424ZM376.946 219V190.636H384.443V195.641H384.776C385.367 193.979 386.352 192.668 387.73 191.707C389.109 190.747 390.759 190.267 392.679 190.267C394.624 190.267 396.28 190.753 397.647 191.726C399.013 192.686 399.924 193.991 400.379 195.641H400.675C401.254 194.016 402.3 192.717 403.814 191.744C405.341 190.759 407.144 190.267 409.225 190.267C411.871 190.267 414.02 191.11 415.669 192.797C417.331 194.471 418.162 196.847 418.162 199.925V219H410.314V201.476C410.314 199.9 409.896 198.718 409.058 197.93C408.221 197.143 407.175 196.749 405.919 196.749C404.491 196.749 403.377 197.204 402.577 198.115C401.777 199.014 401.377 200.202 401.377 201.679V219H393.75V201.31C393.75 199.919 393.35 198.811 392.55 197.986C391.762 197.161 390.722 196.749 389.429 196.749C388.555 196.749 387.767 196.97 387.066 197.413C386.376 197.844 385.828 198.454 385.422 199.241C385.016 200.017 384.813 200.928 384.813 201.974V219H376.946ZM431.359 219V181.182H446.279C449.135 181.182 451.573 181.693 453.592 182.714C455.623 183.724 457.168 185.158 458.227 187.017C459.298 188.864 459.833 191.036 459.833 193.536C459.833 196.047 459.292 198.207 458.208 200.017C457.125 201.814 455.555 203.193 453.499 204.153C451.456 205.114 448.981 205.594 446.076 205.594H436.086V199.168H444.784C446.31 199.168 447.578 198.958 448.587 198.54C449.597 198.121 450.348 197.493 450.84 196.656C451.345 195.819 451.597 194.779 451.597 193.536C451.597 192.28 451.345 191.221 450.84 190.359C450.348 189.498 449.591 188.845 448.569 188.402C447.56 187.946 446.285 187.719 444.747 187.719H439.355V219H431.359ZM451.782 201.79L461.181 219H452.355L443.159 201.79H451.782ZM470.824 219.536C469.014 219.536 467.402 219.222 465.986 218.594C464.57 217.954 463.45 217.012 462.625 215.768C461.813 214.513 461.407 212.949 461.407 211.078C461.407 209.502 461.696 208.179 462.274 207.108C462.853 206.037 463.641 205.175 464.638 204.523C465.635 203.87 466.768 203.378 468.036 203.045C469.316 202.713 470.658 202.479 472.061 202.344C473.711 202.171 475.041 202.011 476.05 201.864C477.059 201.704 477.792 201.47 478.247 201.162C478.703 200.854 478.931 200.399 478.931 199.795V199.685C478.931 198.515 478.561 197.61 477.823 196.97C477.096 196.33 476.062 196.01 474.72 196.01C473.305 196.01 472.178 196.324 471.341 196.952C470.504 197.567 469.95 198.343 469.679 199.278L462.404 198.688C462.773 196.964 463.499 195.474 464.583 194.219C465.666 192.951 467.063 191.978 468.774 191.301C470.498 190.612 472.492 190.267 474.757 190.267C476.333 190.267 477.841 190.452 479.282 190.821C480.734 191.19 482.021 191.763 483.141 192.538C484.273 193.314 485.166 194.311 485.818 195.53C486.471 196.736 486.797 198.183 486.797 199.869V219H479.337V215.067H479.115C478.66 215.953 478.05 216.735 477.287 217.412C476.524 218.077 475.607 218.6 474.536 218.982C473.465 219.351 472.228 219.536 470.824 219.536ZM473.077 214.107C474.234 214.107 475.256 213.879 476.142 213.423C477.029 212.955 477.724 212.328 478.229 211.54C478.734 210.752 478.986 209.859 478.986 208.862V205.852C478.74 206.012 478.401 206.16 477.97 206.295C477.552 206.419 477.078 206.536 476.549 206.646C476.019 206.745 475.49 206.837 474.961 206.923C474.431 206.997 473.951 207.065 473.52 207.126C472.597 207.262 471.791 207.477 471.101 207.773C470.412 208.068 469.876 208.468 469.495 208.973C469.113 209.465 468.922 210.081 468.922 210.82C468.922 211.891 469.31 212.709 470.085 213.276C470.873 213.83 471.871 214.107 473.077 214.107ZM515.728 190.636L505.812 219H496.948L487.032 190.636H495.341L501.232 210.93H501.527L507.4 190.636H515.728ZM529.165 219.554C526.248 219.554 523.736 218.963 521.631 217.781C519.538 216.587 517.926 214.901 516.793 212.722C515.661 210.53 515.094 207.939 515.094 204.947C515.094 202.03 515.661 199.469 516.793 197.266C517.926 195.062 519.52 193.345 521.576 192.114C523.644 190.883 526.069 190.267 528.851 190.267C530.723 190.267 532.465 190.569 534.077 191.172C535.702 191.763 537.118 192.655 538.324 193.849C539.543 195.044 540.491 196.545 541.168 198.355C541.845 200.152 542.184 202.258 542.184 204.67V206.831H518.234V201.956H534.779C534.779 200.823 534.533 199.82 534.04 198.946C533.548 198.072 532.865 197.389 531.991 196.896C531.129 196.392 530.126 196.139 528.981 196.139C527.787 196.139 526.728 196.416 525.805 196.97C524.894 197.512 524.18 198.244 523.663 199.168C523.145 200.079 522.881 201.094 522.868 202.214V206.849C522.868 208.253 523.127 209.465 523.644 210.487C524.173 211.509 524.918 212.297 525.878 212.851C526.839 213.405 527.977 213.682 529.295 213.682C530.169 213.682 530.969 213.559 531.695 213.312C532.422 213.066 533.043 212.697 533.56 212.205C534.077 211.712 534.471 211.109 534.742 210.395L542.018 210.875C541.648 212.623 540.891 214.15 539.746 215.455C538.614 216.747 537.149 217.757 535.351 218.483C533.566 219.197 531.504 219.554 529.165 219.554ZM557.643 219.554C554.726 219.554 552.214 218.963 550.109 217.781C548.017 216.587 546.404 214.901 545.271 212.722C544.139 210.53 543.572 207.939 543.572 204.947C543.572 202.03 544.139 199.469 545.271 197.266C546.404 195.062 547.998 193.345 550.054 192.114C552.122 190.883 554.547 190.267 557.33 190.267C559.201 190.267 560.943 190.569 562.555 191.172C564.18 191.763 565.596 192.655 566.803 193.849C568.021 195.044 568.969 196.545 569.646 198.355C570.323 200.152 570.662 202.258 570.662 204.67V206.831H546.712V201.956H563.257C563.257 200.823 563.011 199.82 562.518 198.946C562.026 198.072 561.343 197.389 560.469 196.896C559.607 196.392 558.604 196.139 557.459 196.139C556.265 196.139 555.206 196.416 554.283 196.97C553.372 197.512 552.658 198.244 552.141 199.168C551.624 200.079 551.359 201.094 551.347 202.214V206.849C551.347 208.253 551.605 209.465 552.122 210.487C552.652 211.509 553.396 212.297 554.357 212.851C555.317 213.405 556.455 213.682 557.773 213.682C558.647 213.682 559.447 213.559 560.173 213.312C560.9 213.066 561.521 212.697 562.038 212.205C562.555 211.712 562.949 211.109 563.22 210.395L570.496 210.875C570.126 212.623 569.369 214.15 568.224 215.455C567.092 216.747 565.627 217.757 563.83 218.483C562.045 219.197 559.982 219.554 557.643 219.554ZM581.062 202.602V219H573.195V190.636H580.693V195.641H581.025C581.653 193.991 582.705 192.686 584.183 191.726C585.66 190.753 587.451 190.267 589.556 190.267C591.526 190.267 593.243 190.698 594.708 191.56C596.173 192.421 597.312 193.652 598.124 195.253C598.937 196.841 599.343 198.737 599.343 200.94V219H591.477V202.344C591.489 200.608 591.046 199.254 590.147 198.281C589.248 197.296 588.011 196.804 586.436 196.804C585.377 196.804 584.441 197.032 583.629 197.487C582.828 197.943 582.201 198.607 581.745 199.482C581.302 200.343 581.074 201.384 581.062 202.602Z" fill="#0F172A"/>
<path d="M610.846 204.006V200.294C612.975 200.294 614.453 199.869 615.277 199.02C616.102 198.17 616.515 196.798 616.515 194.902V190.821C616.515 188.544 616.829 186.722 617.456 185.355C618.097 183.976 618.983 182.936 620.115 182.234C621.26 181.533 622.615 181.065 624.178 180.831C625.741 180.597 627.453 180.48 629.312 180.48V186.352C627.859 186.352 626.751 186.543 625.988 186.925C625.237 187.294 624.726 187.873 624.455 188.661C624.184 189.436 624.049 190.421 624.049 191.615V197.007C624.049 197.943 623.876 198.835 623.532 199.685C623.187 200.522 622.547 201.267 621.611 201.919C620.676 202.559 619.34 203.07 617.604 203.452C615.868 203.821 613.615 204.006 610.846 204.006ZM629.312 227.217C627.453 227.217 625.741 227.1 624.178 226.866C622.615 226.633 621.26 226.165 620.115 225.463C618.983 224.761 618.097 223.721 617.456 222.342C616.829 220.976 616.515 219.154 616.515 216.876V212.777C616.515 210.881 616.102 209.509 615.277 208.659C614.453 207.81 612.975 207.385 610.846 207.385V203.673C613.615 203.673 615.868 203.864 617.604 204.246C619.34 204.615 620.676 205.126 621.611 205.778C622.547 206.419 623.187 207.163 623.532 208.013C623.876 208.85 624.049 209.742 624.049 210.69V216.082C624.049 217.264 624.184 218.243 624.455 219.018C624.726 219.806 625.237 220.385 625.988 220.754C626.751 221.136 627.859 221.327 629.312 221.327V227.217ZM610.846 207.385V200.294H617.475V207.385H610.846ZM638.922 202.602V219H631.056V181.182H638.701V195.641H639.033C639.673 193.966 640.707 192.655 642.135 191.707C643.563 190.747 645.354 190.267 647.509 190.267C649.478 190.267 651.196 190.698 652.661 191.56C654.138 192.409 655.283 193.634 656.095 195.234C656.92 196.822 657.326 198.724 657.314 200.94V219H649.448V202.344C649.46 200.596 649.017 199.235 648.118 198.263C647.232 197.29 645.988 196.804 644.388 196.804C643.317 196.804 642.369 197.032 641.544 197.487C640.732 197.943 640.092 198.607 639.624 199.482C639.168 200.343 638.934 201.384 638.922 202.602ZM673.831 219.554C670.913 219.554 668.402 218.963 666.297 217.781C664.204 216.587 662.591 214.901 661.459 212.722C660.326 210.53 659.76 207.939 659.76 204.947C659.76 202.03 660.326 199.469 661.459 197.266C662.591 195.062 664.186 193.345 666.241 192.114C668.31 190.883 670.735 190.267 673.517 190.267C675.388 190.267 677.13 190.569 678.743 191.172C680.368 191.763 681.784 192.655 682.99 193.849C684.209 195.044 685.157 196.545 685.834 198.355C686.511 200.152 686.849 202.258 686.849 204.67V206.831H662.899V201.956H679.445C679.445 200.823 679.198 199.82 678.706 198.946C678.214 198.072 677.53 197.389 676.656 196.896C675.795 196.392 674.791 196.139 673.646 196.139C672.452 196.139 671.393 196.416 670.47 196.97C669.559 197.512 668.845 198.244 668.328 199.168C667.811 200.079 667.546 201.094 667.534 202.214V206.849C667.534 208.253 667.793 209.465 668.31 210.487C668.839 211.509 669.584 212.297 670.544 212.851C671.504 213.405 672.643 213.682 673.96 213.682C674.834 213.682 675.634 213.559 676.361 213.312C677.087 213.066 677.709 212.697 678.226 212.205C678.743 211.712 679.137 211.109 679.408 210.395L686.683 210.875C686.314 212.623 685.557 214.15 684.412 215.455C683.279 216.747 681.814 217.757 680.017 218.483C678.232 219.197 676.17 219.554 673.831 219.554ZM693.478 229.636C692.481 229.636 691.545 229.556 690.671 229.396C689.809 229.249 689.095 229.058 688.529 228.824L690.302 222.952C691.225 223.235 692.056 223.389 692.795 223.413C693.546 223.438 694.192 223.266 694.733 222.896C695.287 222.527 695.737 221.899 696.081 221.013L696.543 219.812L686.368 190.636H694.641L700.513 211.466H700.809L706.736 190.636H715.064L704.04 222.065C703.511 223.592 702.791 224.921 701.88 226.054C700.981 227.199 699.842 228.079 698.464 228.695C697.085 229.322 695.423 229.636 693.478 229.636ZM724.356 181.182V219H716.49V181.182H724.356ZM740.984 219.554C738.066 219.554 735.555 218.963 733.45 217.781C731.357 216.587 729.745 214.901 728.612 212.722C727.479 210.53 726.913 207.939 726.913 204.947C726.913 202.03 727.479 199.469 728.612 197.266C729.745 195.062 731.339 193.345 733.395 192.114C735.463 190.883 737.888 190.267 740.67 190.267C742.541 190.267 744.283 190.569 745.896 191.172C747.521 191.763 748.937 192.655 750.143 193.849C751.362 195.044 752.31 196.545 752.987 198.355C753.664 200.152 754.003 202.258 754.003 204.67V206.831H730.052V201.956H746.598C746.598 200.823 746.352 199.82 745.859 198.946C745.367 198.072 744.683 197.389 743.809 196.896C742.948 196.392 741.944 196.139 740.799 196.139C739.605 196.139 738.547 196.416 737.623 196.97C736.712 197.512 735.998 198.244 735.481 199.168C734.964 200.079 734.7 201.094 734.687 202.214V206.849C734.687 208.253 734.946 209.465 735.463 210.487C735.992 211.509 736.737 212.297 737.697 212.851C738.657 213.405 739.796 213.682 741.113 213.682C741.987 213.682 742.788 213.559 743.514 213.312C744.24 213.066 744.862 212.697 745.379 212.205C745.896 211.712 746.29 211.109 746.561 210.395L753.836 210.875C753.467 212.623 752.71 214.15 751.565 215.455C750.432 216.747 748.968 217.757 747.17 218.483C745.385 219.197 743.323 219.554 740.984 219.554ZM760.631 229.636C759.634 229.636 758.698 229.556 757.824 229.396C756.962 229.249 756.248 229.058 755.682 228.824L757.455 222.952C758.378 223.235 759.209 223.389 759.948 223.413C760.699 223.438 761.345 223.266 761.887 222.896C762.441 222.527 762.89 221.899 763.235 221.013L763.696 219.812L753.521 190.636H761.794L767.666 211.466H767.962L773.889 190.636H782.218L771.193 222.065C770.664 223.592 769.944 224.921 769.033 226.054C768.134 227.199 766.995 228.079 765.617 228.695C764.238 229.322 762.576 229.636 760.631 229.636ZM800.17 203.673V207.385C798.053 207.385 796.575 207.81 795.738 208.659C794.913 209.509 794.501 210.881 794.501 212.777V216.876C794.501 219.154 794.181 220.976 793.541 222.342C792.913 223.721 792.027 224.761 790.882 225.463C789.749 226.165 788.401 226.633 786.838 226.866C785.287 227.1 783.575 227.217 781.704 227.217V221.327C783.157 221.327 784.259 221.136 785.01 220.754C785.773 220.385 786.29 219.806 786.561 219.018C786.832 218.243 786.967 217.264 786.967 216.082V210.69C786.967 209.742 787.139 208.85 787.484 208.013C787.829 207.163 788.469 206.419 789.404 205.778C790.34 205.126 791.676 204.615 793.412 204.246C795.147 203.864 797.4 203.673 800.17 203.673ZM781.704 180.48C783.575 180.48 785.287 180.597 786.838 180.831C788.401 181.065 789.749 181.533 790.882 182.234C792.027 182.936 792.913 183.976 793.541 185.355C794.181 186.722 794.501 188.544 794.501 190.821V194.902C794.501 196.798 794.913 198.17 795.738 199.02C796.575 199.869 798.053 200.294 800.17 200.294V204.006C797.4 204.006 795.147 203.821 793.412 203.452C791.676 203.07 790.34 202.559 789.404 201.919C788.469 201.267 787.829 200.522 787.484 199.685C787.139 198.835 786.967 197.943 786.967 197.007V191.615C786.967 190.421 786.832 189.436 786.561 188.661C786.29 187.873 785.773 187.294 785.01 186.925C784.259 186.543 783.157 186.352 781.704 186.352V180.48ZM800.17 200.294V207.385H793.541V200.294H800.17Z" fill="#3B82F6"/>
<rect x="0.5" y="0.5" width="966" height="432" rx="19.5" stroke="#1E3A8A"/>
</svg>
